<svg width="40" height="40" viewBox="0 0 40 40" fill="none" xmlns="http://www.w3.org/2000/svg">
<rect width="40" height="40" rx="4" fill="#FFF4ED"/>
<path d="M17 23H28M17 19H21M17 15H21M11.5 29C12.163 29 12.7989 28.7366 13.2678 28.2678C13.7366 27.7989 14 27.163 14 26.5V11H31V26.5C31 27.163 30.7366 27.7989 30.2678 28.2678C29.7989 28.7366 29.163 29 28.5 29H11.5ZM11.5 29C10.837 29 10.2011 28.7366 9.73223 28.2678C9.26339 27.7989 9 27.163 9 26.5V15H14.025M24 15H27V19H24V15Z" stroke="#FF7722" stroke-width="2"/>
</svg>
