<svg width="40" height="40" viewBox="0 0 40 40" fill="none" xmlns="http://www.w3.org/2000/svg">
<rect width="40" height="40" rx="4" fill="#FFF4ED"/>
<path fill-rule="evenodd" clip-rule="evenodd" d="M13 17C13 15.1435 13.7375 13.363 15.0502 12.0503C16.363 10.7375 18.1435 10 20 10C21.8565 10 23.637 10.7375 24.9497 12.0503C26.2625 13.363 27 15.1435 27 17V20.764L28.822 24.408C28.9059 24.5757 28.9455 24.7621 28.937 24.9494C28.9286 25.1368 28.8724 25.3188 28.7738 25.4783C28.6753 25.6379 28.5375 25.7695 28.3737 25.8608C28.2099 25.9521 28.0255 26 27.838 26H23.874C23.6516 26.8582 23.1504 27.6183 22.4493 28.1609C21.7481 28.7035 20.8866 28.9979 20 28.9979C19.1134 28.9979 18.2519 28.7035 17.5507 28.1609C16.8496 27.6183 16.3484 26.8582 16.126 26H12.162C11.9745 26 11.7901 25.9521 11.6263 25.8608C11.4625 25.7695 11.3247 25.6379 11.2261 25.4783C11.1275 25.3188 11.0714 25.1368 11.0629 24.9494C11.0545 24.7621 11.0941 24.5757 11.178 24.408L13 20.764V17ZM18.268 26C18.4435 26.304 18.696 26.5565 19 26.732C19.3041 26.9075 19.6489 26.9999 20 26.9999C20.351 26.9999 20.6959 26.9075 20.9999 26.732C21.304 26.5565 21.5564 26.304 21.732 26H18.268ZM20 12C18.6739 12 17.4021 12.5268 16.4645 13.4645C15.5268 14.4021 15 15.6739 15 17V20.764C15 21.0743 14.9277 21.3804 14.789 21.658L13.619 24H26.382L25.212 21.658C25.0729 21.3805 25.0003 21.0744 25 20.764V17C25 15.6739 24.4732 14.4021 23.5355 13.4645C22.5978 12.5268 21.3261 12 20 12Z" fill="#FF7722"/>
</svg>
